# xmcd
#
# Track frame offsets:
#	150
#	19935
#	32992
#	45665
#	57982
#	76857
#	90870
#	107765
#	123427
#	135707
#	157522
#	170770
#	185467
#	204025
#
# Disc length: 2883
#
# Revision: 1
# Processed by: cddbd v1.5.1PL0 Copyright (c) Steve Scherf et al.
# Submitted via: VisiTrax 2.9.5.180 - For more info visit www.synapsa.com
# Normalized: r0:DSETVAR1
#
DISCID=a80b410e
DTITLE=Various Artist - Mr. Music Country 01-94
DYEAR=1994
DGENRE=
TTITLE0=Lacy J Dalton - Stay with me
TTITLE1=Atlanta - Grandpa was a fiddle playing man
TTITLE2=Glen Campbell - The one who hung the moon
TTITLE3=Gleve Francis - Love light
TTITLE4=Jo-El Sonnier - Café Du Monde
TTITLE5=Dolly Parton - Asleep At the Wheel - Billy Dale
TTITLE6=Nitty Gritty Dirt Band - One good love
TTITLE7=David Lynn Jones - Every road is an open door
TTITLE8=Dawn Dorminy - Good Country Lovin'
TTITLE9=Pirates og the Mississippi - A street man named desire
TTITLE10=Highway 101 - Home on the range
TTITLE11=Chris LeDoux - Wild and wooly
TTITLE12=Tanya Tucker - Two sparrows in a hurricane
TTITLE13=Ricky Lynn Gregg - Can you feel it
EXTD=
EXTT0=
EXTT1=
EXTT2=
EXTT3=
EXTT4=
EXTT5=
EXTT6=
EXTT7=
EXTT8=
EXTT9=
EXTT10=
EXTT11=
EXTT12=
EXTT13=
PLAYORDER=
